<svg width="213" height="59" viewBox="0 0 213 59" fill="none" xmlns="http://www.w3.org/2000/svg">
<path d="M7.608 25.008H10.68L12.624 30.648L14.592 25.008H17.64L14.712 32.76L16.872 38.184L21.696 24.96H25.296L18.48 42H15.624L12.624 34.848L9.648 42H6.792L0 24.96H3.552L8.4 38.184L10.512 32.76L7.608 25.008Z" fill="#0D302C"/>
<path d="M21.608 12.008H24.68L26.624 17.648L28.592 12.008H31.64L28.712 19.76L30.872 25.184L35.696 11.96H39.296L32.48 29H29.624L26.624 21.848L23.648 29H20.792L14 11.96H17.552L22.4 25.184L24.512 19.76L21.608 12.008Z" fill="#0D302C"/>
<path d="M63.85 11.6H70.25L74.3 23.35L78.4 11.6H84.75L78.65 27.75L83.15 39.05L93.2 11.5H100.7L86.5 47H80.55L74.3 32.1L68.1 47H62.15L48 11.5H55.4L65.5 39.05L69.9 27.75L63.85 11.6ZM111.657 11.5H118.657L131.707 47H124.607L121.307 38.15H108.907L105.657 47H98.557L111.657 11.5ZM120.057 33.3L115.157 18.65L110.057 33.3H120.057ZM145.421 11.6H151.821L155.871 23.35L159.971 11.6H166.321L160.221 27.75L164.721 39.05L174.771 11.5H182.271L168.071 47H162.121L155.871 32.1L149.671 47H143.721L129.571 11.5H136.971L147.071 39.05L151.471 27.75L145.421 11.6ZM211.158 40.95V47H186.508V11.5H210.708V17.55H193.408V26.1H208.358V31.7H193.408V40.95H211.158Z" fill="#0D302C"/>
</svg>
