<svg width="60" height="63" viewBox="0 0 60 63" fill="none" xmlns="http://www.w3.org/2000/svg">
<path d="M11.4628 29.512H16.0708L18.9868 37.972L21.9388 29.512H26.5108L22.1188 41.14L25.3588 49.276L32.5948 29.44H37.9948L27.7708 55H23.4868L18.9868 44.272L14.5228 55H10.2388L0.0507812 29.44H5.37878L12.6508 49.276L15.8188 41.14L11.4628 29.512Z" fill="white"/>
<path d="M33.4628 8.512H38.0708L40.9868 16.972L43.9388 8.512H48.5108L44.1188 20.14L47.3588 28.276L54.5948 8.44H59.9948L49.7708 34H45.4868L40.9868 23.272L36.5228 34H32.2388L22.0508 8.44H27.3788L34.6508 28.276L37.8188 20.14L33.4628 8.512Z" fill="white"/>
</svg>
